<?xml version="1.0" encoding="UTF-8"?>
<svg xmlns="http://www.w3.org/2000/svg" xmlns:xlink="http://www.w3.org/1999/xlink" width="26px" height="22px" viewBox="0 0 26 22" version="1.1">
<g id="surface1">
<path style=" stroke:none;fill-rule:nonzero;fill:rgb(0%,0%,0%);fill-opacity:1;" d="M 5.011719 6.132812 C 4.128906 6.132812 3.414062 5.40625 3.414062 4.511719 C 3.414062 3.613281 4.128906 2.886719 5.011719 2.886719 C 5.492188 2.886719 20.507812 2.886719 20.988281 2.886719 C 21.871094 2.886719 22.585938 3.613281 22.585938 4.511719 C 22.585938 5.40625 21.871094 6.132812 20.988281 6.132812 C 20.507812 6.132812 5.492188 6.132812 5.011719 6.132812 Z M 5.011719 12.621094 C 4.128906 12.621094 3.414062 11.894531 3.414062 11 C 3.414062 10.105469 4.128906 9.378906 5.011719 9.378906 C 5.492188 9.378906 20.507812 9.378906 20.988281 9.378906 C 21.871094 9.378906 22.585938 10.105469 22.585938 11 C 22.585938 11.894531 21.871094 12.621094 20.988281 12.621094 C 20.507812 12.621094 5.492188 12.621094 5.011719 12.621094 Z M 5.011719 19.113281 C 4.128906 19.113281 3.414062 18.386719 3.414062 17.488281 C 3.414062 16.59375 4.128906 15.867188 5.011719 15.867188 C 5.492188 15.867188 20.507812 15.867188 20.988281 15.867188 C 21.871094 15.867188 22.585938 16.59375 22.585938 17.488281 C 22.585938 18.386719 21.871094 19.113281 20.988281 19.113281 C 20.507812 19.113281 5.492188 19.113281 5.011719 19.113281 Z M 5.011719 19.113281 "/>
</g>
</svg>
