<svg xmlns="http://www.w3.org/2000/svg"  viewBox="0 0 48 48" width="48px" height="48px"><path d="M 11.5 6 C 8.4802259 6 6 8.4802259 6 11.5 L 6 36.5 C 6 39.519774 8.4802259 42 11.5 42 L 36.5 42 C 39.519774 42 42 39.519774 42 36.5 L 42 11.5 C 42 8.4802259 39.519774 6 36.5 6 L 11.5 6 z M 21 12 C 25.96 12 30 16.04 30 21 C 30 22.94 29.380078 24.740938 28.330078 26.210938 L 35.560547 33.439453 C 36.150547 34.029453 36.150547 34.970547 35.560547 35.560547 C 35.270547 35.850547 34.88 36 34.5 36 C 34.12 36 33.729453 35.850547 33.439453 35.560547 L 26.210938 28.330078 C 24.740938 29.380078 22.94 30 21 30 C 16.04 30 12 25.96 12 21 C 12 16.04 16.04 12 21 12 z M 21 15 C 17.69 15 15 17.69 15 21 C 15 24.31 17.69 27 21 27 C 24.31 27 27 24.31 27 21 C 27 17.69 24.31 15 21 15 z"/></svg>