<?xml version="1.0" encoding="UTF-8"?>
<svg xmlns="http://www.w3.org/2000/svg" xmlns:xlink="http://www.w3.org/1999/xlink" width="18px" height="18px" viewBox="0 0 18 18" version="1.1">
<g id="surface1">
<path style=" stroke:none;fill-rule:evenodd;fill:rgb(0%,0%,0%);fill-opacity:1;" d="M 14.90625 16.199219 L 3.09375 16.199219 C 2.457031 16.199219 1.992188 15.570312 2.226562 14.996094 C 3.34375 12.328125 5.953125 10.800781 9 10.800781 C 12.046875 10.800781 14.660156 12.328125 15.773438 14.996094 C 16.011719 15.570312 15.542969 16.199219 14.90625 16.199219 M 5.324219 5.402344 C 5.324219 3.414062 6.972656 1.800781 9 1.800781 C 11.027344 1.800781 12.675781 3.414062 12.675781 5.402344 C 12.675781 7.386719 11.027344 9 9 9 C 6.972656 9 5.324219 7.386719 5.324219 5.402344 M 17.960938 15.871094 C 17.292969 12.847656 15.203125 10.617188 12.453125 9.605469 C 13.910156 8.457031 14.761719 6.597656 14.445312 4.5625 C 14.085938 2.203125 12.082031 0.3125 9.664062 0.0390625 C 6.320312 -0.34375 3.488281 2.203125 3.488281 5.402344 C 3.488281 7.101562 4.292969 8.617188 5.546875 9.605469 C 2.796875 10.617188 0.707031 12.847656 0.0390625 15.871094 C -0.203125 16.972656 0.699219 18 1.851562 18 L 16.148438 18 C 17.300781 18 18.203125 16.972656 17.960938 15.871094 "/>
</g>
</svg>
