<?xml version="1.0" encoding="UTF-8"?>
<svg xmlns="http://www.w3.org/2000/svg" xmlns:xlink="http://www.w3.org/1999/xlink" width="20px" height="20px" viewBox="0 0 20 20" version="1.1">
<g id="surface1">
<path style=" stroke:none;fill-rule:nonzero;fill:rgb(0%,0%,0%);fill-opacity:1;" d="M 3.054688 0 C 1.378906 0 0 1.378906 0 3.054688 L 0 16.945312 C 0 18.621094 1.378906 20 3.054688 20 L 16.945312 20 C 18.621094 20 20 18.621094 20 16.945312 L 20 3.054688 C 20 1.378906 18.621094 0 16.945312 0 Z M 8.332031 3.332031 C 11.089844 3.332031 13.332031 5.578125 13.332031 8.332031 C 13.332031 9.410156 12.988281 10.410156 12.40625 11.226562 L 16.421875 15.246094 C 16.75 15.570312 16.75 16.09375 16.421875 16.421875 C 16.261719 16.582031 16.042969 16.667969 15.832031 16.667969 C 15.621094 16.667969 15.40625 16.582031 15.246094 16.421875 L 11.226562 12.40625 C 10.410156 12.988281 9.410156 13.332031 8.332031 13.332031 C 5.578125 13.332031 3.332031 11.089844 3.332031 8.332031 C 3.332031 5.578125 5.578125 3.332031 8.332031 3.332031 Z M 8.332031 5 C 6.496094 5 5 6.496094 5 8.332031 C 5 10.171875 6.496094 11.667969 8.332031 11.667969 C 10.171875 11.667969 11.667969 10.171875 11.667969 8.332031 C 11.667969 6.496094 10.171875 5 8.332031 5 Z M 8.332031 5 "/>
</g>
</svg>
